<svg id="visual" viewBox="0 0 900 600" width="900" height="600" xmlns="http://www.w3.org/2000/svg" xmlns:xlink="http://www.w3.org/1999/xlink" version="1.1"><rect x="0" y="0" width="900" height="600" fill="#EFB036"></rect><path d="M0 356L21.5 351C43 346 86 336 128.8 335.2C171.7 334.3 214.3 342.7 257.2 331.2C300 319.7 343 288.3 385.8 288.5C428.7 288.7 471.3 320.3 514.2 332.5C557 344.7 600 337.3 642.8 316.7C685.7 296 728.3 262 771.2 249.7C814 237.3 857 246.7 878.5 251.3L900 256L900 601L878.5 601C857 601 814 601 771.2 601C728.3 601 685.7 601 642.8 601C600 601 557 601 514.2 601C471.3 601 428.7 601 385.8 601C343 601 300 601 257.2 601C214.3 601 171.7 601 128.8 601C86 601 43 601 21.5 601L0 601Z" fill="#fa7268"></path><path d="M0 282L21.5 283.7C43 285.3 86 288.7 128.8 284.7C171.7 280.7 214.3 269.3 257.2 281C300 292.7 343 327.3 385.8 354.2C428.7 381 471.3 400 514.2 391.7C557 383.3 600 347.7 642.8 332C685.7 316.3 728.3 320.7 771.2 336.8C814 353 857 381 878.5 395L900 409L900 601L878.5 601C857 601 814 601 771.2 601C728.3 601 685.7 601 642.8 601C600 601 557 601 514.2 601C471.3 601 428.7 601 385.8 601C343 601 300 601 257.2 601C214.3 601 171.7 601 128.8 601C86 601 43 601 21.5 601L0 601Z" fill="#f46767"></path><path d="M0 334L21.5 345.3C43 356.7 86 379.3 128.8 389.5C171.7 399.7 214.3 397.3 257.2 391.3C300 385.3 343 375.7 385.8 379.5C428.7 383.3 471.3 400.7 514.2 392C557 383.3 600 348.7 642.8 351C685.7 353.3 728.3 392.7 771.2 390.3C814 388 857 344 878.5 322L900 300L900 601L878.5 601C857 601 814 601 771.2 601C728.3 601 685.7 601 642.8 601C600 601 557 601 514.2 601C471.3 601 428.7 601 385.8 601C343 601 300 601 257.2 601C214.3 601 171.7 601 128.8 601C86 601 43 601 21.5 601L0 601Z" fill="#ee5c67"></path><path d="M0 407L21.5 415.5C43 424 86 441 128.8 439.5C171.7 438 214.3 418 257.2 402.5C300 387 343 376 385.8 368.8C428.7 361.7 471.3 358.3 514.2 370.8C557 383.3 600 411.7 642.8 426.3C685.7 441 728.3 442 771.2 445.5C814 449 857 455 878.5 458L900 461L900 601L878.5 601C857 601 814 601 771.2 601C728.3 601 685.7 601 642.8 601C600 601 557 601 514.2 601C471.3 601 428.7 601 385.8 601C343 601 300 601 257.2 601C214.3 601 171.7 601 128.8 601C86 601 43 601 21.5 601L0 601Z" fill="#e75167"></path><path d="M0 453L21.5 454.2C43 455.3 86 457.7 128.8 462C171.7 466.3 214.3 472.7 257.2 472.5C300 472.3 343 465.7 385.8 454.2C428.7 442.7 471.3 426.3 514.2 418.5C557 410.7 600 411.3 642.8 412.8C685.7 414.3 728.3 416.7 771.2 429.2C814 441.7 857 464.3 878.5 475.7L900 487L900 601L878.5 601C857 601 814 601 771.2 601C728.3 601 685.7 601 642.8 601C600 601 557 601 514.2 601C471.3 601 428.7 601 385.8 601C343 601 300 601 257.2 601C214.3 601 171.7 601 128.8 601C86 601 43 601 21.5 601L0 601Z" fill="#df4667"></path><path d="M0 472L21.5 467.5C43 463 86 454 128.8 448.5C171.7 443 214.3 441 257.2 444.8C300 448.7 343 458.3 385.8 459.8C428.7 461.3 471.3 454.7 514.2 452C557 449.3 600 450.7 642.8 456C685.7 461.3 728.3 470.7 771.2 470C814 469.3 857 458.7 878.5 453.3L900 448L900 601L878.5 601C857 601 814 601 771.2 601C728.3 601 685.7 601 642.8 601C600 601 557 601 514.2 601C471.3 601 428.7 601 385.8 601C343 601 300 601 257.2 601C214.3 601 171.7 601 128.8 601C86 601 43 601 21.5 601L0 601Z" fill="#d73b67"></path><path d="M0 508L21.5 511C43 514 86 520 128.8 522.5C171.7 525 214.3 524 257.2 523.7C300 523.3 343 523.7 385.8 522.7C428.7 521.7 471.3 519.3 514.2 517C557 514.7 600 512.3 642.8 512.8C685.7 513.3 728.3 516.7 771.2 514C814 511.3 857 502.7 878.5 498.3L900 494L900 601L878.5 601C857 601 814 601 771.2 601C728.3 601 685.7 601 642.8 601C600 601 557 601 514.2 601C471.3 601 428.7 601 385.8 601C343 601 300 601 257.2 601C214.3 601 171.7 601 128.8 601C86 601 43 601 21.5 601L0 601Z" fill="#cf3068"></path><path d="M0 532L21.5 533.7C43 535.3 86 538.7 128.8 541.5C171.7 544.3 214.3 546.7 257.2 551C300 555.3 343 561.7 385.8 562.7C428.7 563.7 471.3 559.3 514.2 553.8C557 548.3 600 541.7 642.8 537.8C685.7 534 728.3 533 771.2 538.3C814 543.7 857 555.3 878.5 561.2L900 567L900 601L878.5 601C857 601 814 601 771.2 601C728.3 601 685.7 601 642.8 601C600 601 557 601 514.2 601C471.3 601 428.7 601 385.8 601C343 601 300 601 257.2 601C214.3 601 171.7 601 128.8 601C86 601 43 601 21.5 601L0 601Z" fill="#c62368"></path></svg>